REM MD5 a7dec76916f1072d735e4d45ed005e40
FILE "Simple 1500 Series Vol. 3 - The Gomoku Narabe (Japan).bin" BINARY
  TRACK 01 MODE2/2352
    INDEX 01 00:00:00
  TRACK 02 AUDIO
    INDEX 00 05:48:42
    INDEX 01 05:50:42
  TRACK 03 AUDIO
    INDEX 00 08:54:16
    INDEX 01 08:56:16
  TRACK 04 AUDIO
    INDEX 00 11:48:33
    INDEX 01 11:50:33
  TRACK 05 AUDIO
    INDEX 00 14:32:47
    INDEX 01 14:34:47
  TRACK 06 AUDIO
    INDEX 00 16:37:40
    INDEX 01 16:39:40
REM LEADOUT 19:13:60
